<?xml version="1.0" standalone="no"?>
<!DOCTYPE svg PUBLIC "-//W3C//DTD SVG 20010904//EN"
 "http://www.w3.org/TR/2001/REC-SVG-20010904/DTD/svg10.dtd">
<svg version="1.0" xmlns="http://www.w3.org/2000/svg"
 width="690.000000pt" height="690.000000pt" viewBox="0 0 690.000000 690.000000"
 preserveAspectRatio="xMidYMid meet">
<metadata>
Created by potrace 1.11, written by Peter Selinger 2001-2013
</metadata>
<g transform="translate(0.000000,690.000000) scale(0.100000,-0.100000)"
fill="#000000" stroke="none">
<path d="M1723 6893 c950 -2 2504 -2 3455 0 950 1 172 2 -1728 2 -1900 0
-2678 -1 -1727 -2z"/>
<path d="M2314 6665 c-4 -9 1 -46 9 -83 30 -126 36 -228 39 -632 2 -359 0
-426 -19 -590 -12 -102 -25 -277 -28 -390 -4 -113 -13 -259 -21 -325 -8 -66
-19 -158 -25 -205 -6 -47 -15 -100 -21 -118 -15 -49 -2 -81 57 -142 85 -87
228 -250 265 -304 35 -49 156 -149 175 -144 10 3 145 74 430 226 201 107 386
214 439 252 22 17 44 30 49 30 19 0 144 95 199 151 32 33 57 59 55 59 -22 0
-168 -38 -252 -65 -114 -37 -266 -77 -272 -71 -2 2 3 35 12 75 8 40 15 108 15
151 l0 78 48 6 c26 4 126 8 222 10 200 4 190 1 338 114 46 36 85 62 87 60 7
-6 -41 -226 -63 -293 -11 -33 -37 -98 -57 -145 -32 -74 -37 -96 -39 -170 l-1
-85 44 -62 c24 -34 70 -89 102 -122 32 -34 59 -63 59 -66 0 -3 -7 -5 -15 -5
-7 0 -18 -6 -22 -13 -10 -16 -356 -98 -558 -133 -183 -31 -319 -57 -446 -83
-52 -12 -208 -37 -345 -56 -219 -32 -266 -36 -389 -32 -141 5 -285 20 -318 32
-28 12 -47 -13 -47 -62 0 -108 124 -382 216 -478 63 -66 94 -72 112 -22 17 46
51 76 165 141 80 46 136 67 295 115 109 33 226 62 262 66 36 3 124 17 197 31
165 30 420 54 580 54 l122 0 25 -33 c54 -71 29 -197 -89 -442 -62 -129 -74
-165 -57 -165 4 0 27 7 52 16 39 14 66 33 180 130 14 12 48 41 75 64 72 61
145 130 145 136 0 10 62 85 66 81 5 -5 -20 -164 -47 -299 -21 -108 -18 -215 7
-225 41 -15 165 -321 213 -527 16 -66 59 -138 80 -134 14 3 16 25 13 203 -1
110 -8 279 -15 375 -15 214 -14 816 2 1040 12 179 48 413 79 525 56 195 81
267 105 298 l26 35 -106 106 c-144 144 -269 250 -288 242 -8 -3 -15 -3 -15 1
0 16 43 149 62 191 12 26 20 53 19 60 -4 22 20 12 66 -28 48 -42 111 -69 122
-53 16 25 324 133 338 119 3 -2 -8 -24 -25 -48 -48 -70 -179 -325 -186 -362
-7 -39 12 -66 46 -66 11 0 86 -25 166 -55 174 -65 452 -218 452 -248 0 -26
-56 -163 -86 -211 -115 -184 -238 -349 -342 -458 -20 -21 -33 -40 -30 -43 10
-10 110 27 193 71 48 26 138 91 220 161 77 65 196 155 265 200 69 46 139 96
155 111 17 15 51 42 78 60 27 19 47 41 47 51 0 44 -142 204 -235 266 -107 71
-433 191 -580 215 -70 11 -95 19 -95 29 0 12 352 247 438 291 58 30 94 56 109
78 21 32 21 35 6 85 -23 77 -47 119 -93 161 -32 28 -46 35 -63 30 -12 -4 -42
-13 -67 -20 -25 -8 -106 -34 -180 -59 -74 -25 -180 -57 -235 -71 -131 -33
-393 -112 -419 -126 -11 -6 -35 -14 -53 -18 l-32 -8 -51 99 c-65 124 -136 230
-194 292 l-45 48 -73 -2 c-40 -2 -80 -6 -88 -10 -39 -19 -500 -42 -500 -25 0
37 49 313 80 451 57 254 73 305 97 305 12 0 13 3 4 14 -9 11 -8 23 4 52 8 20
13 39 11 41 -2 2 -30 4 -62 4 -70 0 -190 -24 -248 -49 -23 -10 -72 -28 -111
-40 -38 -12 -79 -27 -89 -35 -25 -19 -26 -75 -3 -287 30 -282 37 -363 37 -416
l0 -52 -127 -6 c-292 -14 -348 -20 -351 -36 -1 -9 43 -65 98 -125 55 -61 110
-128 121 -150 51 -98 98 -121 184 -90 22 8 52 14 68 15 l27 0 0 -119 0 -118
-132 -7 c-73 -4 -185 -12 -248 -18 -63 -6 -128 -11 -144 -12 -47 -2 -55 -28
-20 -71 16 -21 35 -47 43 -59 8 -11 44 -65 80 -119 64 -98 98 -127 143 -127
13 0 62 16 109 35 48 19 100 38 118 41 29 6 31 5 31 -23 0 -39 44 -166 69
-202 37 -51 37 -51 -99 -75 -88 -16 -422 -66 -439 -66 -5 0 -39 60 -76 134
-57 113 -67 140 -61 168 8 47 27 359 26 443 0 39 4 104 10 145 42 297 49 356
70 620 14 172 76 451 115 522 8 14 15 31 15 36 0 23 -93 117 -163 166 -41 29
-100 75 -132 104 -55 51 -170 113 -234 127 -24 5 -33 3 -37 -10z m1670 -1442
c96 -92 115 -120 123 -183 4 -36 2 -48 -10 -53 -8 -3 -75 -13 -148 -22 -74 -8
-190 -23 -259 -32 -69 -8 -151 -18 -182 -20 l-58 -5 0 28 c0 16 6 67 14 114 8
47 18 109 21 138 7 49 10 55 41 68 18 8 93 20 166 28 222 23 199 27 292 -61z
m98 -415 c-6 -6 -15 -8 -19 -4 -4 4 -1 11 7 16 19 12 27 3 12 -12z m-1002 -88
c0 -5 -7 -10 -15 -10 -8 0 -15 5 -15 10 0 6 7 10 15 10 8 0 15 -4 15 -10z
m1290 -332 c6 -46 15 -132 20 -193 6 -60 15 -157 20 -215 11 -118 12 -253 2
-318 l-7 -43 -50 83 c-30 49 -49 92 -47 106 2 12 -9 54 -23 93 -41 114 -33
293 22 523 27 108 27 109 40 78 7 -17 17 -69 23 -114z m390 81 c0 -6 -4 -7
-10 -4 -5 3 -10 11 -10 16 0 6 5 7 10 4 6 -3 10 -11 10 -16z m-246 -145 c3 -8
2 -12 -4 -9 -6 3 -10 10 -10 16 0 14 7 11 14 -7z m-964 -64 c-8 -5 -17 -7 -19
-4 -3 3 1 9 9 14 8 5 17 7 19 4 3 -3 -1 -9 -9 -14z m-170 -158 c0 -4 -29 -22
-65 -40 -80 -39 -87 -24 -7 17 61 32 72 36 72 23z m940 -573 c0 -6 -4 -7 -10
-4 -5 3 -10 11 -10 16 0 6 5 7 10 4 6 -3 10 -11 10 -16z m-1480 -49 c0 -5 -7
-10 -16 -10 -8 0 -12 5 -9 10 3 6 10 10 16 10 5 0 9 -4 9 -10z m460 -30 c0 -5
-4 -10 -10 -10 -5 0 -10 5 -10 10 0 6 5 10 10 10 6 0 10 -4 10 -10z m-500 -30
c0 -5 -11 -10 -25 -10 -14 0 -25 5 -25 10 0 6 11 10 25 10 14 0 25 -4 25 -10z
m1587 -92 c-3 -7 -5 -2 -5 12 0 14 2 19 5 13 2 -7 2 -19 0 -25z m-2097 -238
c0 -5 -4 -10 -10 -10 -5 0 -10 5 -10 10 0 6 5 10 10 10 6 0 10 -4 10 -10z"/>
<path d="M1870 6503 c-30 -7 -86 -33 -125 -57 -38 -24 -101 -60 -140 -81 -123
-68 -147 -85 -137 -98 14 -16 29 -161 38 -340 l7 -148 -34 5 c-158 28 -833 48
-977 30 -51 -6 -95 -14 -98 -17 -4 -3 -1 -12 5 -19 7 -7 37 -51 68 -98 30 -47
87 -119 127 -160 39 -41 84 -90 98 -107 15 -18 34 -33 42 -33 9 0 44 22 78 50
34 27 96 64 137 81 42 17 108 45 146 63 39 18 87 39 108 47 20 7 37 16 37 20
0 4 52 24 115 45 63 20 115 41 115 46 0 4 6 8 14 8 18 0 26 -114 13 -185 -5
-27 -12 -151 -15 -274 l-7 -224 -75 -18 c-41 -10 -124 -28 -185 -39 -60 -12
-186 -42 -280 -67 -93 -25 -195 -50 -225 -55 -30 -6 -113 -21 -185 -34 -72
-13 -164 -29 -205 -35 -80 -12 -130 -27 -130 -39 0 -4 31 -59 70 -123 38 -63
70 -118 70 -122 0 -12 88 -141 111 -161 35 -32 104 -64 136 -64 15 0 37 7 47
15 11 8 28 15 39 15 10 0 15 5 12 10 -6 10 176 214 245 275 72 64 237 180 339
238 58 33 115 68 126 77 26 23 86 53 92 46 9 -9 -18 -260 -33 -298 -7 -21 -21
-70 -29 -110 -27 -121 -76 -258 -99 -270 -17 -9 -14 -13 36 -37 146 -68 354
-297 448 -493 22 -46 40 -86 40 -90 0 -4 -17 -15 -37 -23 -20 -9 -69 -42 -109
-75 -39 -33 -107 -83 -150 -111 -92 -61 -172 -135 -217 -199 -29 -41 -32 -52
-32 -120 0 -82 -11 -54 133 -335 63 -123 69 -130 99 -133 30 -3 34 0 63 57 32
65 54 126 64 178 3 18 35 114 71 214 36 99 80 223 96 274 31 96 112 246 151
278 11 10 18 20 15 23 -8 9 -49 8 -69 0 -20 -9 -24 30 -26 269 -4 271 -22 839
-33 993 -23 352 -27 447 -19 501 11 69 38 328 50 476 5 61 14 155 20 210 5 55
9 120 9 145 -2 44 17 175 27 191 12 20 -33 26 -86 12z m-770 -1573 c0 -5 -4
-10 -10 -10 -5 0 -10 5 -10 10 0 6 5 10 10 10 6 0 10 -4 10 -10z m667 -162
c-3 -7 -5 -2 -5 12 0 14 2 19 5 13 2 -7 2 -19 0 -25z m-180 -50 c-3 -7 -5 -2
-5 12 0 14 2 19 5 13 2 -7 2 -19 0 -25z m250 -540 c-3 -8 -6 -5 -6 6 -1 11 2
17 5 13 3 -3 4 -12 1 -19z"/>
<path d="M3023 2893 c-5 -12 6 -28 38 -55 109 -96 198 -164 261 -200 89 -50
200 -125 262 -176 27 -23 77 -56 110 -73 35 -19 85 -59 120 -97 126 -134 221
-220 252 -228 46 -12 80 13 105 74 12 32 44 101 71 156 39 79 48 108 48 150 0
46 -4 56 -33 84 -44 43 -245 121 -259 101 -8 -11 -9 -10 -5 2 4 13 -31 27
-196 78 -281 86 -357 107 -477 136 -58 14 -138 34 -177 45 -88 24 -112 25
-120 3z"/>
<path d="M2336 2815 c-189 -57 -618 -283 -741 -390 -18 -16 -25 -28 -18 -31 8
-3 10 -22 6 -57 -3 -38 4 -89 26 -185 17 -73 36 -142 41 -153 6 -10 33 -36 60
-58 40 -31 59 -39 110 -45 39 -5 66 -3 74 4 7 5 44 81 81 168 38 86 83 180
101 209 18 28 42 69 53 91 11 21 47 72 80 113 34 41 61 79 61 85 0 6 7 17 15
24 9 7 32 41 52 74 19 33 57 86 84 117 27 31 46 59 42 63 -8 8 2 10 -127 -29z"/>
<path d="M3069 2600 c-30 -4 -87 -16 -125 -27 -38 -12 -94 -26 -124 -33 -159
-34 -221 -70 -198 -113 18 -33 3 -346 -20 -440 -11 -43 -22 -81 -26 -84 -3 -4
-57 -10 -119 -14 -61 -5 -132 -13 -157 -19 -25 -5 -118 -21 -207 -35 -90 -13
-172 -30 -183 -37 -14 -9 -20 -24 -20 -50 0 -29 10 -48 48 -95 27 -32 63 -80
81 -106 18 -26 56 -66 84 -88 49 -39 53 -41 104 -34 32 4 77 20 112 39 58 33
121 51 121 34 0 -5 -20 -58 -44 -117 -48 -116 -107 -215 -189 -314 -100 -122
-342 -359 -417 -410 -41 -28 -93 -65 -115 -82 -22 -18 -83 -54 -135 -82 -53
-27 -122 -69 -154 -94 -32 -24 -90 -66 -128 -94 -38 -27 -70 -54 -71 -60 -3
-16 226 -26 363 -15 69 5 206 15 305 20 247 15 274 21 324 75 22 24 54 72 72
107 17 34 39 74 49 88 10 14 74 135 142 270 118 233 183 382 263 604 19 54 47
125 61 157 l27 59 96 31 c141 45 431 119 468 119 39 0 109 -45 157 -102 70
-81 112 -210 103 -318 -5 -72 -45 -184 -132 -365 -81 -170 -256 -386 -367
-450 -33 -20 -95 -58 -138 -86 -84 -53 -256 -129 -295 -129 -12 0 -27 -6 -34
-13 -8 -11 2 -18 52 -35 34 -12 72 -22 83 -22 12 0 41 -7 65 -16 24 -8 91 -19
149 -24 87 -8 127 -6 237 10 73 11 138 17 145 15 7 -3 18 -1 23 3 31 22 138
157 173 217 22 39 49 81 60 95 175 230 365 490 418 571 36 57 82 121 103 142
32 34 36 43 35 87 -2 64 -19 114 -59 175 -60 94 -128 210 -157 270 -33 66 -86
128 -133 153 -42 22 -443 29 -713 12 -111 -7 -205 -10 -208 -7 -7 7 117 391
128 395 4 2 8 10 8 18 0 8 14 45 32 82 17 37 41 91 53 120 l23 52 -22 -1 c-11
-1 -46 -5 -77 -9z m-1457 -2152 c-7 -7 -12 -8 -12 -2 0 14 12 26 19 19 2 -3
-1 -11 -7 -17z m1793 -128 c-10 -11 -20 -18 -23 -15 -3 3 3 14 13 25 10 11 20
18 23 15 3 -3 -3 -14 -13 -25z"/>
<path d="M5240 2560 l-25 -22 25 7 c14 4 35 9 46 12 26 6 89 -25 174 -87 36
-26 93 -64 128 -84 68 -41 77 -56 35 -57 -27 -1 -27 -1 6 -10 47 -14 95 -8 99
13 4 23 -28 50 -129 107 -46 27 -117 67 -157 91 -91 54 -162 64 -202 30z"/>
<path d="M5003 2266 c-28 -24 -28 -26 -27 -128 2 -115 27 -319 51 -416 18 -74
54 -108 102 -97 32 7 40 22 78 135 53 157 89 202 189 239 103 39 226 55 424
55 170 1 189 -1 232 -21 49 -22 87 -75 76 -105 -3 -7 -32 -22 -64 -32 -80 -25
-271 -122 -312 -158 l-34 -29 29 7 c15 4 80 26 144 50 64 24 154 54 200 68 46
13 92 27 102 31 21 9 23 51 2 62 -8 5 -25 29 -38 53 -54 104 -218 140 -495
109 -334 -36 -415 -89 -507 -326 -16 -40 -32 -73 -36 -73 -14 0 -38 93 -74
283 -44 235 -45 268 -7 296 20 15 23 20 10 21 -9 0 -30 -11 -45 -24z"/>
<path d="M5771 1445 c-88 -28 -161 -126 -236 -316 -93 -239 -157 -394 -187
-454 -62 -122 -157 -245 -190 -245 -35 0 -7 109 73 281 26 58 53 126 58 151
11 49 1 106 -21 120 -20 12 -117 9 -192 -7 -38 -8 -72 -13 -74 -10 -3 3 7 14
22 26 15 12 25 24 22 26 -5 6 -142 -83 -151 -98 -13 -21 120 -3 234 32 92 28
129 26 142 -8 20 -49 -4 -119 -96 -291 -102 -190 -114 -236 -70 -270 57 -45
124 -21 195 70 79 99 125 210 231 556 l31 104 38 -37 c26 -26 48 -64 75 -133
21 -53 58 -144 82 -201 24 -57 43 -104 41 -106 -2 -1 -50 -35 -108 -75 -129
-89 -150 -108 -150 -135 0 -31 38 -62 85 -69 79 -13 212 11 305 55 210 100
420 281 457 393 11 34 36 49 32 20 -2 -11 16 -56 40 -102 31 -61 46 -82 59
-80 51 10 -4 188 -71 228 -28 17 -33 18 -48 4 -9 -8 -21 -33 -28 -55 -22 -74
-143 -180 -290 -254 l-54 -27 6 24 c3 13 9 70 13 128 l7 105 43 48 c46 51 76
122 67 159 -8 31 -39 64 -74 78 -27 12 -29 16 -29 70 0 32 5 104 11 161 10 98
9 103 -11 123 -18 18 -34 21 -133 23 -75 2 -127 -2 -156 -12z m198 -15 c35 -5
66 -11 69 -14 2 -3 -7 -59 -22 -125 -14 -66 -26 -132 -26 -146 0 -27 -1 -27
-42 -21 -100 15 -267 25 -315 19 -66 -7 -67 1 -19 101 84 173 162 214 355 186z
m-144 -351 c77 -6 143 -14 148 -18 4 -4 0 -74 -8 -157 l-15 -149 -37 -32 c-21
-18 -43 -33 -50 -33 -8 0 -172 304 -211 393 -5 9 6 9 173 -4z m273 -55 c31
-21 30 -78 -3 -127 -26 -37 -53 -51 -41 -21 3 9 6 49 6 90 0 41 3 74 8 74 4 0
18 -7 30 -16z m-155 -376 c-8 -42 -9 -44 -28 -28 -20 17 -19 37 3 49 28 17 32
13 25 -21z m-78 -85 c17 -16 40 -33 51 -39 25 -15 19 -20 -51 -39 -80 -21
-179 -31 -174 -18 4 10 130 123 138 123 2 0 18 -12 36 -27z"/>
<path d="M5008 1333 c-63 -16 45 -33 212 -33 140 0 165 11 60 26 -84 12 -238
16 -272 7z"/>
</g>
</svg>
