<?xml version="1.0" standalone="no"?>
<!DOCTYPE svg PUBLIC "-//W3C//DTD SVG 20010904//EN"
 "http://www.w3.org/TR/2001/REC-SVG-20010904/DTD/svg10.dtd">
<svg version="1.0" xmlns="http://www.w3.org/2000/svg"
 width="500.000000pt" height="500.000000pt" viewBox="0 0 500.000000 500.000000"
 preserveAspectRatio="xMidYMid meet">
<metadata>
Created by potrace 1.11, written by Peter Selinger 2001-2013
</metadata>
<g transform="translate(0.000000,500.000000) scale(0.100000,-0.100000)"
fill="#000000" stroke="none">
<path d="M3310 4430 c-8 -5 -25 -10 -37 -10 -13 0 -23 -3 -23 -8 0 -12 -73
-31 -90 -22 -81 43 -707 50 -910 10 -30 -6 -73 -13 -95 -16 -22 -3 -49 -9 -60
-13 -11 -5 -58 -21 -105 -36 -47 -15 -89 -32 -95 -36 -5 -5 -17 -9 -27 -9 -10
0 -18 -4 -18 -10 0 -5 -11 -10 -25 -10 -14 0 -25 -4 -25 -10 0 -5 -12 -10 -26
-10 -14 0 -23 -4 -19 -10 4 -6 -12 -10 -39 -10 -25 0 -46 4 -46 8 0 10 -77 52
-96 52 -8 0 -14 4 -14 8 0 5 -35 17 -78 26 -141 33 -292 15 -292 -34 0 -33 28
-40 169 -40 87 0 141 -4 141 -10 0 -5 9 -10 20 -10 11 0 38 -12 60 -26 41 -27
53 -54 25 -54 -9 0 -26 -9 -38 -21 -12 -11 -35 -28 -52 -36 -16 -9 -37 -24
-46 -34 -9 -11 -19 -19 -23 -19 -4 0 -29 -22 -56 -50 -27 -27 -51 -50 -54 -50
-8 0 -86 -78 -86 -86 0 -4 -16 -22 -35 -40 -18 -19 -32 -34 -29 -34 3 0 -5
-10 -16 -22 -38 -42 -70 -83 -70 -91 0 -14 -28 -37 -44 -37 -9 0 -16 -4 -16
-9 0 -5 -15 -12 -33 -15 -19 -3 -55 -20 -81 -36 -25 -17 -52 -30 -59 -30 -7 0
-19 -9 -27 -20 -8 -11 -20 -20 -27 -20 -7 0 -13 -4 -13 -10 0 -5 -5 -10 -11
-10 -14 0 -39 -25 -39 -39 0 -6 -13 -23 -28 -38 -16 -16 -42 -54 -57 -87 -25
-51 -28 -69 -27 -142 0 -45 6 -93 13 -106 14 -25 34 -48 44 -48 4 0 13 -7 21
-15 8 -8 33 -19 55 -25 l39 -11 -5 -47 c-13 -101 -17 -325 -7 -346 11 -21 19
-62 28 -146 3 -25 9 -54 13 -65 5 -11 19 -54 32 -95 12 -41 26 -79 29 -85 4
-5 15 -31 25 -57 10 -27 22 -48 26 -48 5 0 9 -9 9 -20 0 -11 5 -20 10 -20 6 0
10 -9 10 -20 0 -11 5 -20 10 -20 6 0 10 -9 10 -20 0 -11 5 -20 10 -20 6 0 10
-7 10 -15 0 -8 5 -15 10 -15 6 0 10 -7 10 -15 0 -8 5 -15 10 -15 6 0 10 -7 10
-15 0 -8 5 -15 10 -15 6 0 10 -6 10 -14 0 -7 12 -26 28 -42 15 -16 35 -42 46
-58 17 -27 71 -87 144 -162 32 -33 41 -54 22 -54 -5 0 -10 -13 -10 -29 0 -17
-4 -33 -10 -36 -5 -3 -10 -17 -10 -31 0 -13 -4 -24 -10 -24 -5 0 -10 -8 -10
-18 0 -11 -11 -24 -25 -30 -45 -21 -165 -129 -165 -149 0 -7 -4 -13 -10 -13
-5 0 -10 -11 -10 -24 0 -14 -4 -28 -10 -31 -13 -8 -13 -202 0 -210 6 -3 10
-17 10 -31 0 -13 5 -24 10 -24 6 0 10 -8 10 -18 0 -10 14 -26 31 -36 l32 -19
-7 -66 c-8 -73 -20 -162 -36 -261 -5 -36 -13 -116 -16 -178 -6 -109 -6 -113
16 -132 39 -34 110 -17 110 27 0 12 5 23 10 23 6 0 10 42 10 105 0 58 4 105 9
105 5 0 12 37 15 83 6 99 20 206 30 230 7 14 21 17 72 17 36 0 64 4 64 10 0 6
14 10 30 10 17 0 30 5 30 10 0 6 9 10 20 10 11 0 36 9 56 20 43 24 50 21 37
-17 -14 -42 -17 -373 -4 -373 6 0 11 -6 11 -14 0 -19 75 -96 94 -96 9 0 16 -4
16 -10 0 -5 9 -10 19 -10 11 0 23 -4 26 -10 3 -5 19 -10 36 -10 16 0 29 -4 29
-10 0 -5 23 -10 50 -10 28 0 50 -4 50 -9 0 -11 120 -20 373 -27 171 -5 180 -4
197 16 9 11 24 20 31 20 8 0 25 17 38 38 24 36 34 75 47 179 4 29 10 53 14 53
5 0 11 24 14 52 16 146 18 158 32 158 16 0 51 -18 72 -38 7 -7 18 -10 23 -7 5
4 9 2 9 -3 0 -5 18 -17 40 -27 22 -10 40 -22 40 -27 0 -4 5 -8 10 -8 10 0 87
-32 122 -51 10 -5 27 -9 38 -9 11 0 20 -4 20 -10 0 -5 13 -10 29 -10 17 0 33
-4 36 -10 3 -5 19 -10 36 -10 16 0 29 -4 29 -10 0 -5 14 -10 30 -10 17 0 30
-4 30 -9 0 -5 20 -12 45 -15 25 -3 65 -9 90 -12 54 -7 75 9 77 60 1 36 -19 66
-46 66 -8 0 -18 4 -21 10 -3 5 -17 10 -31 10 -14 0 -34 5 -44 10 -10 6 -30 11
-44 12 -15 1 -26 6 -26 10 0 4 -13 8 -30 8 -16 0 -30 5 -30 10 0 6 -13 10 -29
10 -17 0 -33 5 -36 10 -3 6 -15 10 -26 10 -10 0 -19 5 -19 10 0 6 -13 10 -30
10 -16 0 -30 5 -30 10 0 6 -6 10 -14 10 -17 0 -124 56 -147 76 -8 8 -20 14
-25 14 -5 0 -22 11 -39 25 -16 14 -42 35 -57 47 -15 13 -28 29 -28 36 0 6 -4
12 -10 12 -5 0 -10 6 -10 14 0 8 -9 18 -20 21 -17 5 -20 15 -20 61 0 57 12 87
45 116 45 39 50 43 53 39 1 -1 15 1 30 7 44 16 145 28 177 21 17 -4 58 -7 92
-8 34 0 72 -5 85 -10 13 -5 52 -17 88 -26 36 -10 74 -21 85 -25 11 -4 40 -14
65 -21 25 -7 49 -16 54 -21 6 -4 20 -8 33 -8 13 0 23 -4 23 -10 0 -5 20 -10
45 -10 60 0 87 24 83 74 -1 20 -6 36 -11 36 -4 0 -5 5 -2 10 3 5 -3 10 -14 10
-12 0 -21 5 -21 10 0 6 -13 10 -30 10 -16 0 -30 5 -30 10 0 6 -18 10 -41 10
-24 0 -38 4 -34 10 3 6 -3 10 -15 10 -12 0 -33 6 -48 14 -28 14 -153 46 -257
67 -33 6 -117 12 -187 12 -117 -1 -146 5 -118 22 6 3 10 22 10 41 0 19 -4 34
-10 34 -5 0 -10 8 -10 18 0 10 -11 28 -25 40 -31 27 -164 92 -187 92 -10 0
-18 5 -18 10 0 6 -18 10 -40 10 -22 0 -40 5 -40 10 0 6 -18 10 -39 10 -22 0
-43 5 -46 10 -3 6 -33 10 -66 10 l-61 0 6 63 c3 34 10 118 15 187 5 69 11 134
14 145 4 11 8 55 10 98 3 43 7 81 11 84 3 4 6 1 6 -5 0 -7 9 -12 20 -12 11 0
20 -3 20 -7 0 -27 170 -48 185 -23 3 6 15 10 26 10 10 0 19 5 19 10 0 6 16 10
35 10 19 0 35 5 35 10 0 6 7 10 15 10 8 0 15 5 15 10 0 6 6 10 14 10 8 0 17 6
19 13 4 9 6 9 6 -1 1 -8 18 4 39 26 21 22 47 41 58 43 28 6 33 64 6 71 -31 9
-72 -3 -85 -23 -7 -11 -15 -19 -20 -19 -4 0 -31 -15 -60 -34 -28 -19 -71 -41
-94 -48 -24 -7 -43 -15 -43 -19 0 -3 -22 -6 -49 -8 -40 -1 -59 4 -99 29 -28
17 -57 41 -66 55 -31 47 -53 90 -60 118 -9 36 -35 35 -91 -3 -24 -16 -50 -30
-58 -30 -8 0 -17 -6 -20 -14 -6 -14 -62 -46 -81 -46 -7 0 -18 -9 -26 -20 -12
-16 -26 -20 -77 -20 -35 0 -63 4 -63 10 0 6 -7 10 -15 10 -20 0 -65 45 -65 65
0 8 -4 15 -10 15 -5 0 -10 9 -10 20 0 11 -4 20 -8 20 -4 0 -9 12 -10 27 -3 43
-56 66 -68 30 -15 -44 11 -138 51 -188 31 -38 89 -79 113 -79 12 0 22 -4 22
-10 0 -6 32 -10 75 -10 43 0 75 4 75 10 0 6 9 10 20 10 18 0 20 -7 20 -59 0
-33 -5 -63 -10 -66 -6 -3 -10 -48 -10 -101 0 -52 -4 -94 -9 -94 -5 0 -12 -42
-14 -92 -7 -135 -14 -161 -45 -176 -15 -7 -67 -12 -124 -12 -59 0 -98 -4 -98
-10 0 -5 -6 -10 -14 -10 -8 0 -16 -4 -18 -9 -1 -5 -19 -18 -38 -28 l-35 -20
-3 -107 -3 -108 -27 7 c-15 4 -51 9 -79 12 -51 5 -53 6 -53 34 0 16 5 29 10
29 6 0 10 14 10 30 0 17 5 30 10 30 6 0 10 23 10 52 0 28 -3 49 -6 45 -7 -7
-104 90 -104 104 0 5 -7 9 -15 9 -8 0 -15 4 -15 8 0 4 -16 25 -35 45 -19 20
-35 41 -35 45 0 4 -9 14 -20 22 -11 8 -20 20 -20 28 0 7 -5 10 -10 7 -6 -4
-10 7 -10 24 0 24 -4 31 -20 31 -13 0 -20 7 -20 19 0 10 -9 30 -20 44 -30 37
-90 152 -90 171 0 9 -5 16 -12 16 -6 0 -9 3 -5 6 3 4 -5 28 -18 55 -14 27 -25
59 -25 73 0 14 -4 28 -10 31 -5 3 -10 17 -10 31 0 13 -4 24 -10 24 -6 0 -10
27 -10 60 0 33 -4 60 -10 60 -6 0 -10 70 -10 190 0 105 3 190 8 190 4 0 12 10
17 23 9 19 19 22 70 25 33 2 64 7 69 13 6 5 23 9 38 9 15 0 28 5 28 10 0 6 27
10 60 10 33 0 60 4 60 10 0 6 58 10 155 10 97 0 155 -4 155 -10 0 -5 20 -10
45 -10 25 0 45 -4 45 -10 0 -5 13 -10 28 -10 15 0 32 -4 38 -8 11 -10 90 -27
197 -41 80 -11 211 0 232 20 5 5 15 9 22 9 18 0 63 45 63 64 0 8 5 16 12 18 8
3 12 35 12 99 1 80 -2 100 -21 132 -13 21 -23 45 -23 53 0 8 -4 12 -10 9 -5
-3 -10 -1 -10 5 0 6 -20 31 -45 55 -43 43 -71 62 -160 109 -22 12 -43 26 -47
31 -4 6 -8 7 -8 3 0 -3 -23 2 -50 13 -28 10 -61 19 -75 19 -13 0 -26 4 -29 9
-3 5 -23 12 -43 15 -21 4 -65 11 -98 17 -33 6 -138 13 -233 16 l-172 4 19 28
c26 37 217 231 228 231 4 0 28 18 51 40 24 22 48 40 52 40 5 0 20 11 34 25 14
14 32 25 41 25 8 0 15 5 15 10 0 18 30 11 53 -12 12 -13 24 -34 25 -47 2 -13
11 -31 19 -39 8 -8 19 -26 24 -39 7 -20 15 -24 41 -21 31 3 33 5 31 41 -1 21
-9 45 -18 53 -8 9 -13 20 -10 25 4 5 2 9 -3 9 -9 0 -52 75 -52 91 0 5 8 9 18
9 9 0 35 9 57 19 70 33 115 51 130 51 8 0 15 5 15 12 0 6 3 9 6 5 4 -3 22 0
41 8 20 8 46 15 59 15 13 0 24 4 24 8 0 5 21 9 47 11 26 1 50 7 54 13 4 7 8 5
12 -3 4 -10 6 -10 6 -1 1 8 23 12 76 12 44 0 75 4 75 10 0 7 76 9 220 8 121
-2 220 -6 220 -10 0 -5 36 -8 80 -8 70 0 80 -2 80 -18 0 -10 -9 -24 -20 -32
-11 -8 -20 -22 -20 -32 0 -10 -7 -18 -16 -18 -22 0 -39 -20 -54 -62 -12 -31
-11 -38 3 -52 8 -9 21 -16 27 -16 13 0 54 41 85 85 34 48 113 125 129 125 8 0
18 -4 21 -10 3 -5 16 -10 27 -10 22 0 71 -14 123 -35 17 -7 48 -19 70 -26 22
-7 44 -17 49 -21 6 -4 20 -8 33 -8 13 0 23 -4 23 -10 0 -5 6 -10 14 -10 13 0
94 -38 106 -50 13 -13 52 -30 68 -30 10 0 24 -9 32 -20 8 -11 20 -20 27 -20 7
0 13 -4 13 -10 0 -5 5 -10 11 -10 6 0 16 -6 24 -12 7 -7 26 -23 42 -35 16 -12
44 -36 61 -53 18 -16 37 -30 43 -30 14 0 39 -26 39 -40 0 -6 5 -8 10 -5 6 3
10 -3 10 -14 0 -14 6 -21 20 -21 11 0 20 -7 20 -15 0 -8 5 -15 10 -15 6 0 10
-5 10 -10 0 -6 10 -22 23 -36 41 -46 52 -60 82 -104 16 -25 38 -52 47 -61 10
-9 18 -26 18 -38 0 -11 5 -21 10 -21 6 0 10 -9 10 -21 0 -11 5 -17 10 -14 6 3
10 -3 10 -14 0 -12 5 -21 10 -21 6 0 10 -7 10 -15 0 -8 5 -15 10 -15 6 0 10
-11 10 -24 0 -14 5 -28 10 -31 6 -3 10 -15 10 -26 0 -10 5 -19 10 -19 6 0 10
-6 10 -13 0 -7 9 -32 20 -55 11 -22 20 -47 20 -54 0 -7 9 -38 21 -68 11 -30
23 -73 26 -95 3 -22 9 -41 14 -43 5 -2 9 -19 9 -38 0 -19 5 -34 10 -34 6 0 10
-36 10 -88 0 -50 5 -93 11 -99 7 -7 9 -34 5 -74 -4 -35 -9 -102 -12 -149 -3
-47 -10 -89 -15 -94 -5 -6 -9 -20 -9 -33 0 -13 -4 -23 -8 -23 -4 0 -9 -11 -10
-24 -2 -27 -89 -214 -109 -234 -7 -7 -13 -17 -13 -22 0 -5 -11 -20 -25 -34
-14 -14 -25 -30 -25 -36 0 -6 -19 -30 -42 -54 -24 -24 -56 -60 -73 -80 -16
-19 -34 -36 -38 -36 -4 0 -23 -16 -43 -35 -19 -19 -39 -35 -44 -35 -5 0 -20
-11 -34 -25 -14 -14 -32 -25 -40 -25 -8 0 -16 -3 -18 -7 -5 -13 -95 -73 -108
-73 -7 0 -24 -9 -40 -20 -15 -11 -30 -17 -34 -13 -3 3 -6 1 -6 -5 0 -7 -9 -12
-20 -12 -11 0 -20 -4 -20 -10 0 -5 -7 -10 -16 -10 -8 0 -12 -5 -9 -10 3 -6 -5
-10 -19 -10 -14 0 -28 -4 -31 -10 -3 -5 -15 -10 -26 -10 -20 0 -54 -16 -76
-37 -15 -14 -18 -103 -3 -103 6 0 10 -11 10 -25 0 -14 5 -25 10 -25 6 0 10 -9
10 -19 0 -11 5 -23 10 -26 6 -3 10 -17 10 -30 0 -13 4 -26 8 -29 4 -3 14 -28
22 -56 8 -28 18 -53 22 -56 4 -3 8 -18 8 -35 0 -16 4 -37 9 -47 5 -9 17 -46
27 -82 9 -36 21 -69 26 -75 4 -5 8 -26 8 -47 0 -21 5 -38 10 -38 6 0 10 -23
10 -51 0 -31 4 -48 10 -44 6 4 10 -13 10 -44 0 -28 4 -51 8 -51 5 0 9 -21 11
-47 1 -25 6 -54 12 -64 5 -10 9 -29 9 -43 0 -14 5 -28 10 -31 6 -3 10 -13 10
-22 0 -16 36 -53 53 -53 5 0 24 7 43 16 32 16 34 19 34 70 0 30 -4 54 -10 54
-5 0 -10 18 -10 39 0 22 -4 43 -10 46 -5 3 -10 26 -10 50 0 24 -4 47 -10 50
-5 3 -10 20 -10 37 0 18 -4 45 -9 62 -12 38 -25 94 -41 166 -13 63 -18 80 -56
205 -15 50 -31 98 -35 107 -5 10 -9 25 -9 33 0 8 -4 15 -10 15 -5 0 -10 11
-10 24 0 14 -4 28 -10 31 -5 3 -10 16 -10 29 0 18 18 31 108 73 59 28 117 61
129 72 12 12 29 21 38 21 8 0 15 5 15 10 0 6 6 10 13 10 7 0 23 9 35 20 12 11
26 20 32 20 5 0 10 5 10 10 0 6 6 10 13 10 6 0 24 10 39 23 14 12 36 29 47 37
12 8 21 20 21 27 0 7 4 13 9 13 10 0 161 145 161 155 0 3 9 15 20 27 11 12 25
34 32 49 7 15 16 25 20 23 4 -3 8 2 8 10 0 9 5 16 10 16 6 0 10 7 10 15 0 8 4
15 8 15 4 0 14 16 21 35 7 19 17 35 22 35 5 0 9 8 9 18 0 10 6 26 13 37 7 11
19 40 27 65 7 25 17 49 22 54 4 6 8 25 8 42 0 18 5 36 10 39 6 3 10 22 10 41
0 20 5 45 11 56 14 26 15 383 2 401 -5 6 -11 32 -12 56 -1 25 -5 49 -8 53 -3
5 -11 39 -19 75 -19 93 -55 205 -71 224 -7 8 -13 25 -13 37 0 12 -4 22 -10 22
-5 0 -10 16 -10 35 0 19 -4 35 -10 35 -5 0 -10 7 -10 15 0 8 -4 15 -10 15 -5
0 -10 9 -10 20 0 11 -4 20 -10 20 -5 0 -10 9 -10 20 0 11 -4 20 -10 20 -5 0
-10 10 -10 23 0 13 -9 33 -20 45 -11 12 -20 26 -20 32 0 19 -64 109 -117 165
-18 19 -33 38 -33 43 0 5 -13 23 -30 40 -16 18 -30 34 -30 38 0 16 -169 160
-183 156 -6 -2 -5 3 2 12 10 12 9 14 -8 9 -16 -4 -21 -1 -21 13 0 9 -3 15 -6
11 -4 -3 -13 1 -21 9 -24 23 -161 114 -173 114 -5 0 -10 5 -10 10 0 6 -9 10
-20 10 -11 0 -20 5 -20 10 0 6 -9 10 -20 10 -11 0 -20 5 -20 10 0 6 -9 10 -20
10 -11 0 -20 5 -20 10 0 6 -9 10 -20 10 -11 0 -20 5 -20 10 0 6 -11 10 -25 10
-14 0 -25 4 -25 8 0 5 -6 9 -12 9 -20 1 -43 7 -48 14 -3 4 -34 16 -70 27 l-65
21 77 0 c42 1 78 -3 80 -9 2 -5 15 -11 31 -12 15 -1 27 -6 27 -10 0 -4 9 -8
21 -8 11 0 17 -4 14 -10 -3 -5 0 -10 8 -10 7 0 23 -9 35 -21 28 -25 75 -28 97
-5 9 9 12 16 6 16 -6 0 -11 7 -11 15 0 8 -4 15 -8 15 -5 0 -22 11 -37 24 -42
36 -144 86 -176 86 -16 0 -29 5 -29 10 0 13 -150 13 -170 0z m-2210 -880 c0
-5 11 -10 25 -10 14 0 25 5 25 10 0 6 92 10 255 10 163 0 255 -4 255 -10 0 -5
25 -10 55 -10 30 0 55 -4 55 -10 0 -5 16 -10 36 -10 21 0 33 -4 29 -10 -4 -6
6 -10 23 -10 41 0 205 -82 254 -128 64 -58 66 -61 73 -82 3 -11 11 -20 16 -20
5 0 9 -13 9 -30 0 -16 5 -30 10 -30 6 0 10 -18 10 -39 0 -22 -4 -43 -10 -46
-5 -3 -10 -14 -10 -23 0 -24 -44 -54 -99 -69 -56 -15 -148 -17 -156 -3 -3 6
-28 10 -56 10 -27 0 -57 4 -67 9 -15 9 -82 29 -172 51 -98 25 -241 35 -303 22
-29 -6 -81 -15 -117 -21 -151 -24 -150 -24 -150 -7 0 9 6 16 13 16 17 0 12
118 -9 186 -19 64 -71 124 -108 124 -14 0 -26 5 -26 10 0 6 -9 10 -20 10 -11
0 -20 3 -20 8 0 13 70 72 85 72 8 0 15 5 15 10 0 6 14 10 30 10 17 0 30 5 30
10 0 6 5 10 10 10 6 0 10 -4 10 -10z m1108 -1178 c2 -12 8 -22 13 -22 12 0 12
-87 -1 -95 -6 -3 -10 -49 -10 -103 0 -53 -4 -112 -10 -131 -5 -19 -12 -92 -16
-163 -4 -70 -12 -134 -18 -141 -7 -9 -28 -12 -65 -9 l-54 4 7 77 c3 42 11 119
17 171 5 52 14 140 19 195 19 213 23 227 66 238 33 9 49 2 52 -21z m127 -767
c33 -4 64 -11 69 -16 6 -5 20 -9 33 -9 31 0 103 -23 103 -32 0 -5 11 -8 25 -8
14 0 25 -4 25 -10 0 -5 9 -10 20 -10 11 0 20 -4 20 -10 0 -5 7 -10 15 -10 9 0
28 -12 42 -26 l26 -26 -16 -52 c-16 -47 -51 -84 -102 -105 -15 -6 -38 -31 -28
-31 4 0 -3 -7 -15 -16 -12 -8 -20 -20 -17 -25 4 -5 1 -9 -4 -9 -6 0 -11 -8
-11 -18 0 -10 -4 -22 -10 -28 -15 -15 -15 -197 0 -202 9 -3 9 -7 -1 -13 -10
-6 -11 -9 -1 -9 6 0 12 -7 12 -15 0 -8 5 -15 10 -15 6 0 10 -6 10 -13 0 -7 9
-23 20 -35 15 -16 20 -35 20 -81 0 -33 -4 -63 -10 -66 -5 -3 -10 -26 -10 -51
0 -24 -4 -44 -10 -44 -6 0 -10 -27 -10 -60 0 -33 -4 -60 -10 -60 -5 0 -10 -25
-10 -55 0 -30 -4 -55 -10 -55 -5 0 -10 -4 -10 -10 0 -5 -12 -22 -27 -37 l-28
-28 -192 2 c-202 1 -297 12 -400 44 -34 10 -71 19 -83 19 -11 0 -20 5 -20 10
0 6 -9 10 -20 10 -11 0 -20 6 -20 13 0 8 -9 22 -20 32 -19 17 -20 31 -20 245
0 212 1 228 20 248 11 12 20 26 20 32 0 5 5 10 10 10 6 0 10 9 10 20 0 11 5
20 10 20 6 0 10 13 10 29 0 17 5 33 10 36 22 14 1 185 -22 185 -5 0 -8 6 -8
13 0 7 -9 19 -20 27 -18 13 -20 26 -20 137 0 113 1 122 20 128 11 3 20 11 20
16 0 5 12 9 28 10 15 0 36 4 47 9 21 10 428 5 530 -5z m-835 -327 c0 -5 9 -8
20 -8 11 0 20 -4 20 -10 0 -5 7 -10 16 -10 32 0 43 -32 44 -118 0 -80 -1 -85
-29 -110 -56 -51 -71 -62 -91 -62 -11 0 -20 -4 -20 -10 0 -5 -9 -10 -19 -10
-11 0 -23 -4 -26 -10 -3 -5 -21 -10 -40 -10 -19 0 -37 -4 -40 -10 -3 -5 -19
-10 -36 -10 -16 0 -29 5 -29 10 0 6 -7 10 -16 10 -9 0 -31 15 -50 34 -31 31
-34 39 -34 95 0 34 4 61 10 61 6 0 10 11 10 25 0 14 5 25 10 25 6 0 10 5 10
11 0 14 36 46 61 54 11 4 19 11 19 16 0 5 9 9 20 9 11 0 20 5 20 10 0 6 14 10
30 10 17 0 30 5 30 11 0 6 21 9 55 7 30 -2 55 -6 55 -10z"/>
<path d="M1963 1202 c-13 -15 -23 -33 -23 -39 0 -9 -16 -13 -46 -13 -44 0 -45
-1 -42 -27 2 -17 12 -32 24 -37 21 -10 21 -11 5 -55 -9 -25 -19 -47 -23 -49
-22 -10 -4 -41 32 -58 39 -19 50 -37 30 -49 -17 -11 -11 -50 11 -68 20 -18 21
-17 26 2 3 12 9 21 13 21 4 0 10 9 13 20 5 21 37 29 37 9 0 -18 64 -6 68 13 4
19 -19 48 -37 48 -6 0 -11 9 -11 20 0 11 4 20 10 20 5 0 13 12 16 28 4 15 12
30 18 34 14 9 6 16 -25 21 -26 5 -59 -20 -59 -44 0 -18 -28 -39 -44 -33 -17 7
-22 54 -6 54 6 0 10 7 10 16 0 8 6 22 14 30 17 16 46 19 46 4 0 -17 80 -12 97
6 26 25 4 48 -48 52 -60 5 -74 18 -49 45 25 26 25 37 0 37 -11 0 -20 5 -20 10
0 17 -14 11 -37 -18z"/>
<path d="M2113 1192 c-17 -28 2 -52 42 -52 19 0 35 -4 35 -10 0 -6 27 -10 60
-10 l60 0 0 -56 c0 -54 -18 -91 -36 -76 -5 4 -2 -1 5 -10 9 -12 10 -18 2 -18
-6 0 -11 -7 -11 -15 0 -8 3 -14 8 -13 20 6 72 -13 72 -27 0 -8 -4 -15 -10 -15
-5 0 -10 -7 -10 -15 0 -8 -4 -15 -10 -15 -5 0 -10 -16 -10 -35 0 -35 0 -35 45
-35 43 0 45 1 45 30 0 17 5 30 10 30 6 0 10 25 10 55 0 44 -4 57 -20 67 -16
10 -20 24 -20 63 0 28 4 65 10 84 17 59 2 71 -90 71 -47 0 -80 4 -80 10 0 6
-21 10 -48 10 -35 0 -50 -5 -59 -18z"/>
<path d="M2159 1074 c-17 -21 -39 -82 -39 -111 0 -12 -4 -25 -10 -28 -5 -3
-10 -25 -10 -49 0 -23 -5 -47 -11 -53 -9 -9 -8 -16 4 -27 23 -23 57 -21 57 4
0 11 5 20 10 20 6 0 10 18 10 40 0 22 5 40 10 40 6 0 10 20 10 44 0 27 5 46
13 49 16 6 11 68 -7 79 -16 11 -22 10 -37 -8z"/>
<path d="M2230 1070 c0 -5 5 -10 10 -10 6 0 10 5 10 10 0 6 -4 10 -10 10 -5 0
-10 -4 -10 -10z"/>
<path d="M2256 871 c-4 -7 -5 -15 -2 -18 9 -9 19 4 14 18 -4 11 -6 11 -12 0z"/>
<path d="M3255 3660 c-3 -5 -30 -10 -60 -10 -30 0 -57 -4 -60 -10 -3 -5 -14
-10 -24 -10 -9 0 -41 -11 -69 -25 -28 -14 -57 -26 -64 -27 -7 -2 -21 -11 -32
-20 -11 -10 -26 -18 -33 -18 -7 0 -13 -4 -13 -10 0 -5 -7 -10 -15 -10 -8 0
-20 -9 -27 -20 -7 -11 -19 -20 -26 -20 -15 0 -82 -65 -82 -80 0 -5 -4 -10 -10
-10 -5 0 -10 -9 -10 -20 0 -11 -3 -20 -8 -20 -12 0 -32 -76 -32 -122 0 -62 22
-116 66 -165 33 -35 45 -42 77 -43 20 0 37 -4 37 -10 0 -6 47 -10 120 -10 73
0 120 4 120 10 0 6 31 10 73 10 50 0 67 3 57 10 -11 7 -4 10 27 10 23 0 45 5
48 10 4 6 63 10 146 10 86 0 139 -4 139 -10 0 -5 14 -10 30 -10 17 0 30 -4 30
-10 0 -5 11 -10 24 -10 14 0 28 -4 31 -10 3 -5 15 -10 26 -10 11 0 27 -6 34
-14 24 -24 176 -67 265 -75 221 -21 302 32 300 196 -2 100 -2 103 -13 103 -6
0 -8 3 -4 6 3 4 -3 23 -14 43 -40 74 -63 104 -73 94 -3 -4 -6 -1 -6 6 0 15
-71 84 -111 108 -16 9 -29 21 -29 25 0 4 -5 8 -10 8 -6 0 -20 9 -32 20 -12 11
-32 20 -44 20 -12 0 -24 4 -26 10 -1 5 -39 21 -83 36 -44 14 -88 30 -97 35
-10 5 -29 9 -42 9 -14 0 -28 5 -31 10 -3 6 -26 10 -50 10 -24 0 -47 5 -50 10
-4 6 -77 10 -185 10 -108 0 -181 -4 -185 -10z m413 -92 c2 -4 21 -8 43 -8 21
0 39 -4 39 -10 0 -5 13 -10 29 -10 17 0 33 -4 36 -10 3 -5 17 -10 31 -10 13 0
24 -4 24 -10 0 -5 9 -10 19 -10 11 0 23 -4 26 -10 3 -5 15 -10 26 -10 10 0 19
-4 19 -10 0 -5 8 -10 18 -10 11 0 29 -9 42 -20 13 -11 26 -20 30 -20 7 0 119
-109 158 -153 12 -15 22 -31 22 -37 0 -5 5 -10 10 -10 6 0 10 -11 10 -25 0
-14 5 -25 10 -25 6 0 10 -27 10 -61 0 -37 -4 -58 -10 -54 -6 4 -10 -5 -10 -20
0 -20 -6 -27 -30 -31 -16 -4 -30 -10 -30 -15 0 -12 -147 -11 -155 1 -3 6 -26
10 -50 10 -24 0 -47 5 -50 10 -3 6 -17 10 -30 10 -13 0 -27 5 -30 10 -3 6 -15
10 -26 10 -10 0 -19 5 -19 10 0 6 -7 10 -15 10 -13 0 -65 20 -107 41 -10 5
-27 9 -37 9 -11 0 -23 5 -26 10 -3 6 -21 10 -39 10 -17 0 -37 5 -43 11 -7 7
-45 9 -104 6 -92 -5 -125 -10 -259 -41 -35 -8 -66 -13 -69 -11 -2 3 1 23 8 45
8 28 9 46 1 59 -5 11 -10 36 -10 55 0 37 -2 42 -36 106 -20 39 -59 81 -77 84
-7 1 -20 6 -30 12 -24 14 -12 44 18 44 13 0 27 5 30 10 3 6 15 10 26 10 10 0
19 5 19 10 0 6 11 10 25 10 14 0 25 5 25 10 0 6 18 10 40 10 22 0 40 4 40 10
0 18 451 17 458 -2z"/>
<path d="M1077 2632 c-10 -10 -17 -26 -17 -35 0 -9 -4 -17 -10 -17 -5 0 -10
-9 -10 -19 0 -11 -4 -23 -10 -26 -5 -3 -10 -17 -10 -31 0 -13 -4 -24 -10 -24
-15 0 -12 -30 5 -47 35 -35 77 5 106 102 6 22 15 50 20 63 5 13 5 22 -1 22 -6
0 -10 7 -10 15 0 21 -33 19 -53 -3z"/>
<path d="M1212 2602 c-26 -32 -72 -124 -72 -146 0 -23 28 -45 50 -39 11 3 20
13 20 22 0 9 9 23 20 31 11 8 20 22 20 32 0 9 5 20 10 23 15 9 12 74 -4 91
-19 18 -17 18 -44 -14z"/>
<path d="M1355 2594 c-9 -9 -19 -29 -22 -45 -3 -16 -9 -29 -14 -29 -5 0 -9 -9
-9 -19 0 -11 -4 -23 -10 -26 -5 -3 -10 -19 -10 -35 0 -15 -6 -31 -12 -34 -10
-5 -10 -7 0 -12 6 -3 12 -11 12 -18 0 -8 10 -11 29 -8 24 3 32 14 57 70 16 37
28 70 27 74 -2 5 2 8 7 8 17 0 12 77 -6 84 -24 9 -31 8 -49 -10z"/>
<path d="M3597 2579 c-9 -6 -17 -16 -17 -24 0 -7 -4 -15 -9 -17 -5 -1 -11 -10
-13 -18 -2 -8 -11 -22 -20 -31 -10 -9 -18 -24 -18 -33 0 -9 -4 -16 -10 -16 -5
0 -10 -9 -10 -19 0 -11 -4 -21 -9 -23 -10 -3 -14 -22 -12 -50 1 -25 49 -23 71
2 10 12 33 50 50 85 18 36 36 65 41 65 5 0 9 16 9 35 0 39 -24 60 -53 44z"/>
<path d="M3750 2578 c0 -5 -4 -6 -10 -3 -5 3 -10 -3 -10 -14 0 -12 -4 -21 -10
-21 -5 0 -10 -8 -10 -17 0 -10 -14 -45 -30 -77 -33 -64 -36 -86 -18 -104 15
-15 48 -16 48 -1 0 5 5 7 10 4 6 -4 10 5 10 19 0 14 4 26 9 26 5 0 15 20 22
45 7 25 17 45 21 45 4 0 8 7 8 16 0 8 6 22 14 30 13 13 11 53 -3 55 -39 5 -51
4 -51 -3z"/>
<path d="M3870 2563 c-15 -4 -60 -87 -60 -111 0 -7 -4 -12 -10 -12 -5 0 -10
-9 -10 -20 0 -11 -5 -20 -11 -20 -6 0 -9 -14 -7 -32 2 -28 8 -34 31 -36 29 -4
57 17 57 42 0 8 5 18 10 21 6 3 10 15 10 26 0 10 5 19 10 19 6 0 10 9 10 20 0
11 4 20 8 20 14 0 14 73 0 81 -14 9 -14 9 -38 2z"/>
</g>
</svg>
